<?xml version="1.0" encoding="utf-8"?>
<svg style="fill: transparent;" shape-rendering="geometricPrecision" text-rendering="geometricPrecision" image-rendering="optimizeQuality" fill-rule="evenodd" clip-rule="evenodd" viewBox="0 0 363 511.49" xmlns="http://www.w3.org/2000/svg">
  <path fill-rule="nonzero" d="M 46.73 0 L 303.5 0 C 319.84 0 334.71 6.71 345.49 17.48 C 356.29 28.29 363 43.17 363 59.5 L 363 503.03 C 363 507.7 359.21 511.49 354.54 511.49 C 352.49 511.49 350.59 510.75 349.13 509.52 L 181.42 378.99 L 13.64 509.67 C 9.98 512.53 4.67 511.88 1.82 508.22 C 0.663 506.738 0.037 504.91 0.04 503.03 L 0 46.73 C 0 33.91 5.25 22.23 13.72 13.75 C 22.25 5.24 33.92 0 46.73 0 Z M 89.96 224.631 C 89.96 219.961 120.825 260.671 125.495 260.671 C 130.155 260.671 130.628 259.048 130.628 263.718 L 143.461 268.988 L 223.111 275.029 C 227.771 275.029 200.931 275.691 205.513 276.539 C 247.67 284.344 166.908 278.811 162.248 278.811 L 108.36 259.19 L 103.881 237.904 C 103.881 242.574 121.648 264.985 116.988 264.985 C 112.318 264.985 113.497 262.377 113.497 257.707 L 126.768 269.403 L 145.401 277.964 C 140.741 277.964 99.183 255.586 99.183 250.916 C 99.183 246.256 84.445 224.727 89.105 224.727 L 92.781 227.312 L 89.96 224.631 Z M 181.5 62.02 C 212.67 62.02 240.91 74.66 261.34 95.09 C 281.77 115.52 294.42 143.77 294.42 174.94 C 294.42 206.08 281.78 234.31 261.34 254.75 C 240.87 275.22 212.64 287.87 181.5 287.87 C 150.32 287.87 122.08 275.21 101.65 254.79 C 81.22 234.35 68.58 206.12 68.58 174.94 C 68.58 143.79 81.23 115.55 101.65 95.12 C 122.11 74.67 150.35 62.02 181.5 62.02 Z M 249.39 107.05 C 232.03 89.68 208.01 78.93 181.5 78.93 C 154.97 78.93 130.96 89.68 113.59 107.03 C 96.23 124.4 85.49 148.42 85.49 174.94 C 85.49 201.45 96.24 225.47 113.6 242.83 C 130.97 260.2 154.99 270.96 181.5 270.96 C 208.03 270.96 232.05 260.21 249.39 242.86 C 266.77 225.49 277.51 201.48 277.51 174.94 C 277.51 148.43 266.76 124.42 249.39 107.05 Z M 202.963 69.289 L 124.388 83.412 C 116.178 83.412 92.854 110.466 87.474 115.846 C 82.064 121.266 82.544 126.254 82.544 134.464 L 81.714 222.484 L 152.881 284.285 C 155.861 281.575 155.527 280.06 158.817 282.62 L 242.331 263.446 L 293.01 168.145 C 293.01 156.445 283.012 129.268 275.302 121.538 C 267.572 113.828 214.673 69.289 202.963 69.289 Z"/>
</svg>